<?xml version="1.0" encoding="UTF-8" standalone="no"?>
<svg
   xmlns:dc="http://purl.org/dc/elements/1.1/"
   xmlns:cc="http://creativecommons.org/ns#"
   xmlns:rdf="http://www.w3.org/1999/02/22-rdf-syntax-ns#"
   xmlns:svg="http://www.w3.org/2000/svg"
   xmlns="http://www.w3.org/2000/svg"
   xmlns:sodipodi="http://sodipodi.sourceforge.net/DTD/sodipodi-0.dtd"
   xmlns:inkscape="http://www.inkscape.org/namespaces/inkscape"
   version="1.1"
   id="svg833"
   xml:space="preserve"
   width="360"
   height="360"
   viewBox="0 0 360 360"
   sodipodi:docname="SF Logo.svg"
   inkscape:version="1.0.1 (3bc2e813f5, 2020-09-07)"><metadata
     id="metadata839"><rdf:RDF><cc:Work
         rdf:about=""><dc:format>image/svg+xml</dc:format><dc:type
           rdf:resource="http://purl.org/dc/dcmitype/StillImage" /><dc:title /></cc:Work></rdf:RDF></metadata><defs
     id="defs837" /><sodipodi:namedview
     pagecolor="#ffffff"
     bordercolor="#666666"
     borderopacity="1"
     objecttolerance="10"
     gridtolerance="10"
     guidetolerance="10"
     inkscape:pageopacity="0"
     inkscape:pageshadow="2"
     inkscape:window-width="1280"
     inkscape:window-height="697"
     id="namedview835"
     showgrid="false"
     inkscape:zoom="1.3475569"
     inkscape:cx="225.67728"
     inkscape:cy="204.74708"
     inkscape:window-x="-8"
     inkscape:window-y="-8"
     inkscape:window-maximized="1"
     inkscape:current-layer="g841"
     inkscape:document-rotation="0" /><g
     id="g841"
     inkscape:groupmode="layer"
     inkscape:label="SF Logo"
     transform="matrix(1.3333333,0,0,1.3333333,0,9e-6)"><g
       id="g246"
       inkscape:export-xdpi="299.20001"
       inkscape:export-ydpi="299.20001"><path
         d="m 170.2129,165.379 c 5.695,-8.66 9.223,-18.434 8.402,-29.227 -0.355,-4.675 -1.496,-9.121 -3.125,-13.504 -0.636,-1.714 -1.343,-3.394 -2.054,-5.078 -0.547,-1.289 -1.133,-2.625 -1.547,-3.961 -4.762,-15.308002 -2.864,-31.523002 13.308,-38.984002 l 5.813,-2.68 -3.692,5.227 c -0.804,1.144 -1.402,2.39 -1.769,3.742 -1.406,5.145 0.68,11.094 2.855,15.727 1.493,3.183 3.274,6.265002 5.125,9.254002 2.016,3.257 4.153,6.445 6.297,9.621 2.348,3.484 4.719,6.953 6.973,10.5 8.449,13.285 13.879,28.48 15.047,44.222 1.066,14.383 -1.535,29.098 -8.348,41.879 -6.539,12.274 -16.43,21.906 -28.726,28.36 -14.793,7.765 -31.668,10.25 -48.215,9.558 -17.903,-0.75 -36.91,-4.344 -52.16,-14.246 -11.172,-7.258 -19.309,-17.281 -23.93,-29.781 -3.957,-10.711 -5.024,-22.426 -3.961,-33.75 0.836,-8.867 3.109,-18.703 7.055,-26.735 l 3.586,-7.296 -0.332,8.125 c -0.254,6.199 0.773,12.246 3.351,17.906 2.059,4.512 4.988,8.523 8.531,11.98 1.739,1.696 3.625,3.262 5.618,4.672 -1.446,-2.183 -2.77,-4.457 -3.938,-6.793 -5.148,-10.269 -7.316,-21.691 -4.613,-33.008 1.652,-6.902 3.836,-13.336 7.406,-19.496 3.648,-6.301 8.481,-11.976 13.203,-17.488 3.207,-3.738 6.434,-7.457002 9.61,-11.219002 4.156,-4.922 8.226,-9.902 12.21,-14.957 8.235,-10.453 16.04,-24.331998 14.59,-38.155998 -0.351,-3.355 -1.265,-6.695 -2.82,-9.695 -1.828,-3.524 -5.434,-7.168 -8.035,-10.243 15.555,7.887 25.805,18.95 28.703,37.723 1.852,11.987998 -0.41,24.405998 -5.074,35.511998 -3.289,7.832002 -7.864,15.258002 -13.422,21.683002 -4.563,5.274 -9.16,11.934 -10.828,18.809 -1.059,4.356 -0.949,9.016 1.66,12.82 3.574,5.207 10.387,6.871 16.348,6.934 4.468,0.047 8.656,-1.297 11.464,-4.93 4.391,-5.683 3.684,-14.433 0.789,-20.613 -1.476,-3.156 -3.644,-6.023 -6.449,-8.109 l -5.402,-4.016 6.664,0.937 c 4.98,0.704 9.461,3.43 13.027,6.879 4.098,3.961 7.203,9.032 9.235,14.332 2.289,5.981 3.293,12.442 2.929,18.832 -0.168,2.969 -0.625,5.887 -1.359,8.731 z"
         style="fill:#131510;fill-opacity:1;fill-rule:evenodd;stroke:none"
         id="path847" /><path
         d="m 129.1349,25.715 c 0,0 17.324,19.125 -9.594,53.296998 C 92.6269,113.18 83.3609,116.707 77.4319,141.512 c -5.926,24.8 13.504,45.179 13.504,45.179 0,0 -27.032,-11.058 -25.836,-40.41 -12.5,25.43 -19.403,98.239 71.527,102.039 78.465,3.278 102.789,-67.828 68.727,-121.382 -11.414,-17.946 -28.473,-37.950002 -19.438,-50.754002 -18.887,8.714 -14.961,28.652002 -12.391,36.918002 2.571,8.261 18.766,31.828 -9.597,63.086 14.973,-25.907 -0.742,-55.485 -17.785,-57.883 13.539,10.066 13.695,36.961 -6.844,36.746 -20.539,-0.211 -29.156,-17.481 -8.461,-41.403 20.691,-23.921002 29.563,-64.757 -1.703,-87.933 z"
         style="fill:#f3903f;fill-opacity:1;fill-rule:evenodd;stroke:none"
         id="path849" /><path
         d="m 137.1079,36.297 c 1.6894,7.906603 0.20438,30.718463 -11.37762,42.878914 -11.586,13.692 -27.94338,32.250086 -33.91238,39.972086 -5.968,7.727 -24.574,34.407 0.704,63.543 -4.420563,-8.04436 -16.040324,-28.6893 -2.696324,-52.9113 13.143224,-21.27538 19.093964,-25.93418 31.382964,-39.625185 12.285,-13.692 22.69184,-27.198571 15.89936,-53.857515 z"
         style="fill:#ffcc00;fill-opacity:1;fill-rule:evenodd;stroke:none"
         id="path851"
         sodipodi:nodetypes="ccccccc" /><path
         d="m 181.7209,81.526998 c -1.12057,4.714628 -1.67659,15.545327 4.85744,24.357732 15.54731,20.96858 24.89256,38.09527 28.01756,48.26027 3.125,10.164 5.902,40.351 -9.555,58.171 8.8593,-31.12986 19.336,-49.808 -15.973,-97.343 -6.71,-9.032 -12.828,-19.305002 -7.347,-33.446002 z"
         style="fill:#ffcc00;fill-opacity:1;fill-rule:evenodd;stroke:none"
         id="path853"
         sodipodi:nodetypes="cscccc" /><path
         d="m 123.0879,155.797 c 0,0 22.758,10.984 36.508,-7.578 -6.028,9.64 -15.192,21.558 -36.508,7.578 z"
         style="fill:#ffcc00;fill-opacity:1;fill-rule:evenodd;stroke:none"
         id="path855" /><path
         d="m 63.1349,161.836 c 0,0 -6.598,50.766 35.512,76.226 -37.258,-15.535 -40.461,-57.343 -35.512,-76.226 z"
         style="fill:#ffcc00;fill-opacity:1;fill-rule:evenodd;stroke:none"
         id="path857" /><path
         d="m 62.8149,159.57 c -4.223,5.75 -0.485,10.68 4.312,14.211 5.676,4.172 8.324,6.188 13.348,11.336 3.16,3.238 4.207,9.363 3.445,13.969 -2.332,14.066 -22.801,26.469 -35.793,23.43 -3.676,-0.465 -7.781,-4.395 -9.391,-8.297 -0.668,-1.844 -1.984,-1.68 -3.648,0.019 -1.199,1.227 -1.859,3.469 -1.871,5.703 -0.016,3.407 0.871,4.321 1.23,6.247 -0.082,-0.172 -0.312,-0.504 -0.441,-0.727 -0.148,-0.258 -0.301,-0.516 -0.449,-0.781 -0.739,-1.305 -1.828,-3.754 -2.282,-5.118 -3.046,-9.16 0.141,-14.734 6.754,-20.39 1.868,-1.598 3.653,-2.934 5.493,-4.449 3.601,-2.973 7.496,-6.282 8.687,-11.028 0.359,-1.445 0.422,-2.906 0.281,-4.437 -0.191,-2.051 -0.738,-2.985 -0.879,-3.91 2.579,4.742 3.563,9.699 1.786,15.687 -1.539,5.18 -8.215,10.027 -9.508,13.965 -1.949,5.016 -0.289,11.305 1.918,13.051 6.066,4.804 32.562,-4.59 29.191,-20.641 -1.035,-4.922 -11.515,-12.617 -15.328,-15.914 -3.746,-3.246 -8.277,-9.558 -8.977,-13.934 -1.656,-10.386 16.188,-20.343 23.344,-22.91 12.942,-3.902 13.66,3.965 16.078,4.907 3.286,1.078 3.672,-5.508 1.774,-9.911 -0.543,-1.253 -1.399,-2.425 -1.828,-3.449 3.156,2.887 7.027,8.594 7.683,13.965 0.504,4.133 -0.715,7.461 -2.297,10.754 -1.433,2.984 -5.625,8.562 -7.546,11.695 l -1.657,3.094 c -1.711,4 -2.511,6.895 -1.109,11.539 0.496,1.641 1.14,2.508 1.785,3.883 -1.836,-1.984 -3.887,-5.352 -4.734,-8.723 l -0.075,-0.293 c -2.621,-10.425 8.153,-23.91 4.528,-30.664 -3.805,-10.082 -19.699,2.508 -23.824,8.121 z"
         style="fill:#131510;fill-opacity:1;fill-rule:evenodd;stroke:none"
         id="path859" /><path
         d="m 53.2329,183.754 c -0.016,0.07 -0.032,0.137 -0.051,0.207 -1.262,5.051 -5.285,8.492 -9.035,11.586 -1.817,1.496 -3.692,2.91 -5.481,4.437 -2.773,2.375 -5.613,5.274 -6.851,8.871 -1.184,3.442 -0.711,6.981 0.414,10.36 0,0.008 0.004,0.012 0.004,0.015 0.125,-2.039 0.761,-4.328 2.148,-5.742 0.914,-0.929 2.242,-1.972 3.598,-1.543 0.859,0.274 1.382,1.039 1.691,1.879 1.359,3.278 5.07,7.203 8.578,7.649 l 0.051,0.007 0.047,0.008 c 12.418,2.907 32.347,-9.101 34.578,-22.582 0.687,-4.144 -0.184,-9.992 -3.156,-13.039 -2.059,-2.109 -4.157,-4.133 -6.414,-6.012 -2.196,-1.832 -4.508,-3.523 -6.805,-5.214 -2.774,-2.043 -5.789,-4.957 -6.449,-8.594 -0.477,-2.633 0.386,-5.035 1.914,-7.117 1.027,-1.399 2.332,-2.723 3.59,-3.895 1.609,-1.496 3.339,-2.89 5.14,-4.133 2.145,-1.476 4.567,-2.867 7.028,-3.664 2.121,-0.683 4.562,-1.004 6.632,0.035 1.524,0.766 2.528,2.114 3.149,3.723 1.332,2.555 0.859,5.719 0.176,8.402 -0.844,3.313 -2.145,6.551 -3.188,9.805 -1.246,3.883 -2.476,8.567 -1.453,12.645 l 0.074,0.293 c 0.071,0.289 0.156,0.582 0.25,0.875 -0.031,-2.571 0.692,-4.887 1.91,-7.739 l 0.02,-0.043 1.691,-3.164 0.016,-0.027 c 1.164,-1.895 2.48,-3.734 3.73,-5.566 0.75,-1.098 1.493,-2.2 2.207,-3.321 0.547,-0.867 1.118,-1.781 1.563,-2.711 1.574,-3.273 2.648,-6.406 2.195,-10.148 -0.312,-2.555 -1.457,-5.344 -2.972,-7.852 0.261,1.407 0.355,2.922 0.179,4.313 -0.179,1.402 -0.695,3.039 -2.008,3.699 -0.675,0.34 -1.421,0.336 -2.128,0.105 l -0.028,-0.007 -0.023,-0.012 c -0.914,-0.355 -1.571,-1.27 -2.153,-2.047 -0.664,-0.879 -1.308,-1.691 -2.183,-2.355 -3.11,-2.364 -7.672,-1.512 -11.086,-0.485 -7.055,2.539 -24.172,12.235 -22.652,21.735 0.695,4.367 5.398,10.5 8.625,13.293 4.105,3.554 14.539,11.128 15.668,16.5 0.515,2.453 0.41,4.906 -0.352,7.293 -1.676,5.238 -6.184,9.175 -10.703,11.718 -3.387,1.907 -7.324,3.352 -11.141,3.922 -2.597,0.387 -6.383,0.52 -8.59,-1.226 -1.617,-1.282 -2.527,-3.934 -2.898,-5.938 -0.508,-2.734 -0.356,-5.726 0.644,-8.324 0.469,-1.406 1.454,-2.758 2.356,-3.891 1.082,-1.359 2.25,-2.64 3.363,-3.972 1.426,-1.7 3.121,-3.86 3.77,-6.043 0.687,-2.317 0.988,-4.629 0.801,-6.969 z"
         style="fill:#f8b479;fill-opacity:1;fill-rule:evenodd;stroke:none"
         id="path861" /><path
         d="m 41.1269,213.82 c -0.047,-0.207 -0.086,-0.41 -0.125,-0.605 -0.551,-2.988 -0.383,-6.231 0.707,-9.07 0.531,-1.579 1.559,-3.012 2.574,-4.286 1.09,-1.371 2.266,-2.66 3.387,-4 1.141,-1.359 2.555,-3.121 3.266,-4.871 -1.746,2.102 -3.875,3.91 -5.973,5.641 -1.809,1.492 -3.676,2.898 -5.461,4.422 -2.57,2.199 -5.297,4.933 -6.445,8.273 -0.508,1.473 -0.672,2.973 -0.594,4.469 0.285,-0.469 0.617,-0.902 0.996,-1.289 1.289,-1.316 3.035,-2.473 4.906,-1.875 1.25,0.398 2.067,1.433 2.524,2.672 0.074,0.168 0.152,0.344 0.238,0.519 z"
         style="fill:#131510;fill-opacity:1;fill-rule:evenodd;stroke:none"
         id="path863" /><path
         d="m 74.7989,146.953 c -0.02,0.004 -0.039,0.012 -0.059,0.02 -1.91,0.687 -3.82,1.601 -5.621,2.554 -2.328,1.227 -4.605,2.618 -6.758,4.157 -3.675,2.636 -10.23,8.113 -9.371,13.48 0.641,4.016 5.211,9.902 8.164,12.461 4.473,3.871 14.868,11.313 16.118,17.262 0.566,2.695 0.449,5.406 -0.391,8.023 -1.176,3.676 -3.609,6.742 -6.512,9.188 5.758,-4.067 10.297,-9.625 11.258,-15.426 0.606,-3.676 -0.133,-9.106 -2.785,-11.82 -2.02,-2.071 -4.098,-4.079 -6.309,-5.922 -2.179,-1.813 -4.468,-3.489 -6.746,-5.164 -3.082,-2.27 -6.25,-5.43 -6.984,-9.461 -0.547,-3.028 0.406,-5.817 2.164,-8.211 1.094,-1.489 2.418,-2.84 3.758,-4.086 1.664,-1.547 3.433,-2.973 5.293,-4.254 1.504,-1.035 3.109,-2.016 4.781,-2.801 z"
         style="fill:#131510;fill-opacity:1;fill-rule:evenodd;stroke:none"
         id="path865" /><path
         d="m 94.9829,148.324 c -0.391,1.414 -1.141,2.707 -2.465,3.375 -0.977,0.492 -2.071,0.512 -3.098,0.176 l -0.105,-0.035 c 0.753,2.547 0.336,5.367 -0.313,7.914 -0.859,3.367 -2.148,6.586 -3.211,9.887 -0.406,1.265 -0.82,2.648 -1.148,4.07 l 1.258,-2.348 0.039,-0.062 c 1.179,-1.926 2.496,-3.762 3.765,-5.625 0.738,-1.082 1.477,-2.172 2.18,-3.281 0.527,-0.829 1.055,-1.676 1.484,-2.567 1.446,-3.008 2.481,-5.937 2.067,-9.359 -0.09,-0.711 -0.243,-1.43 -0.453,-2.145 z"
         style="fill:#131510;fill-opacity:1;fill-rule:evenodd;stroke:none"
         id="path867" /><path
         d="m 230.4859,187.125 c -0.128,-0.066 -0.476,-0.059 -0.593,-0.051 -1.149,0.078 -2.102,0.52 -2.875,1.414 -0.758,0.875 -1.328,1.879 -1.606,3.028 -0.215,0.902 -0.246,1.832 0.102,2.699 0.254,0.633 0.73,0.699 1.347,0.617 h 0.016 c 1.246,-0.141 2.711,-0.102 3.766,0.703 0.828,0.629 1.402,1.516 1.265,2.621 -0.136,1.094 -0.91,1.832 -1.808,2.317 -1.153,0.621 -2.555,0.507 -3.789,0.207 -1.746,0.187 -3.379,0.957 -4.832,1.961 -1.746,1.207 -3.344,2.625 -4.75,4.246 -1.246,1.433 -2.352,3.039 -3.121,4.804 -0.395,0.903 -0.872,2.305 -0.45,3.278 0.379,0.883 1.446,1.16 2.278,1.265 1.773,0.235 3.867,-0.371 5.519,-0.996 2.75,-1.047 5.426,-2.765 7.809,-4.519 3.32,-2.449 6.316,-5.551 8.988,-8.742 l 0.559,-0.668 c -2.309,8.027 -7.059,13.566 -11.504,16.269 -3.879,2.356 -8.196,3.977 -12.739,4.102 h -0.027 c -0.723,0 -1.461,-0.043 -2.183,-0.078 -1.196,-0.063 -2.352,-0.375 -3.45,-0.864 -1.25,-0.562 -2.3,-1.433 -3.175,-2.515 -1.149,-1.414 -1.45,-3.321 -1.399,-5.121 0.055,-1.883 0.664,-3.664 1.555,-5.29 1.004,-1.835 2.304,-3.472 3.769,-4.925 1.625,-1.614 3.45,-2.981 5.395,-4.137 1.273,-0.758 2.598,-1.406 3.969,-1.938 -0.508,-0.429 -0.95,-0.953 -1.305,-1.578 -0.777,-1.375 -1.02,-2.89 -0.762,-4.461 0.289,-1.746 1.211,-3.269 2.348,-4.554 1.465,-1.66 3.441,-2.742 5.469,-3.449 1.703,-0.59 3.488,-0.758 5.269,-0.594 1.688,0.156 3.34,0.617 4.785,1.558 1.332,0.875 2.332,2.067 2.879,3.614 0.621,1.773 0.18,3.601 -0.664,5.199 l -0.039,0.078 -0.051,0.066 c -0.601,0.801 -1.347,1.461 -2.273,1.821 -0.785,0.3 -1.606,0.437 -2.442,0.375 -0.8,-0.063 -1.582,-0.266 -2.324,-0.582 -0.66,-0.282 -1.308,-0.594 -1.933,-0.95 l -1.59,-0.906 1.578,-0.926 c 0.695,-0.41 1.305,-0.933 1.824,-1.566 0.442,-0.539 0.856,-1.16 1.094,-1.832 0.101,-0.281 0.207,-0.695 0.101,-1 z"
         style="fill:#131510;fill-opacity:1;fill-rule:evenodd;stroke:none"
         id="path869" /><path
         d="m 226.4589,216.336 c -4.351,3.07 -8.68,4.195 -12.418,4.297 -0.398,0 -1.109,-0.024 -2.133,-0.078 -1.023,-0.051 -2.058,-0.313 -3.105,-0.782 -1.047,-0.468 -1.985,-1.211 -2.805,-2.226 -0.824,-1.016 -1.211,-2.485 -1.16,-4.41 0.047,-1.563 0.523,-3.164 1.422,-4.805 0.894,-1.641 2.094,-3.203 3.59,-4.687 1.496,-1.485 3.23,-2.813 5.199,-3.985 1.973,-1.172 4.004,-2.043 6.098,-2.617 -1.395,-0.414 -2.418,-1.195 -3.067,-2.344 -0.648,-1.144 -0.859,-2.394 -0.637,-3.75 0.227,-1.351 0.922,-2.691 2.098,-4.019 1.172,-1.328 2.856,-2.383 5.051,-3.164 1.543,-0.524 3.164,-0.704 4.863,-0.547 1.696,0.156 3.141,0.625 4.34,1.406 1.195,0.781 2.02,1.809 2.469,3.086 0.449,1.273 0.246,2.719 -0.602,4.332 -0.547,0.73 -1.156,1.227 -1.832,1.484 -0.672,0.262 -1.347,0.368 -2.019,0.313 -0.672,-0.051 -1.348,-0.219 -2.02,-0.508 -0.676,-0.285 -1.285,-0.586 -1.836,-0.898 0.801,-0.469 1.5,-1.067 2.098,-1.793 0.598,-0.731 1.023,-1.446 1.269,-2.149 0.25,-0.703 0.278,-1.304 0.079,-1.797 -0.2,-0.496 -0.727,-0.718 -1.575,-0.664 -1.445,0.102 -2.629,0.688 -3.551,1.758 -0.925,1.066 -1.535,2.227 -1.835,3.473 -0.297,1.25 -0.25,2.371 0.152,3.359 0.398,0.992 1.195,1.406 2.391,1.25 1.398,-0.156 2.421,0.016 3.07,0.508 0.648,0.496 0.933,1.043 0.859,1.641 -0.074,0.597 -0.5,1.105 -1.273,1.523 -0.77,0.418 -1.856,0.441 -3.254,0.078 -1.793,0.156 -3.617,0.871 -5.461,2.149 -1.848,1.277 -3.492,2.746 -4.938,4.414 -1.449,1.664 -2.546,3.359 -3.293,5.078 -0.75,1.718 -0.898,3.097 -0.449,4.136 0.449,1.043 1.473,1.668 3.067,1.875 1.597,0.211 3.593,-0.14 5.988,-1.054 2.394,-0.91 5.074,-2.461 8.043,-4.645 2.969,-2.187 4.441,-3.699 7.586,-7.449 -4.613,7.898 -8.231,10.637 -10.469,12.211 z"
         style="fill:#f8b479;fill-opacity:1;fill-rule:evenodd;stroke:none"
         id="path871" /><path
         d="m 234.5609,191.281 c 0.476,-0.937 0.828,-2.058 0.464,-3.097 -0.367,-1.039 -1.035,-1.809 -1.929,-2.391 -0.399,-0.262 -0.821,-0.469 -1.254,-0.641 0.328,0.239 0.594,0.567 0.773,1.008 0.368,0.91 0.27,1.899 -0.054,2.809 -0.336,0.945 -0.879,1.804 -1.508,2.566 -0.172,0.211 -0.356,0.418 -0.547,0.61 0.453,0.171 0.922,0.285 1.402,0.324 0.504,0.039 0.993,-0.047 1.465,-0.231 0.473,-0.183 0.867,-0.554 1.188,-0.957 z m -4.707,-6.633 c -0.172,-0.023 -0.344,-0.043 -0.516,-0.058 -1.465,-0.137 -2.93,-0.004 -4.332,0.48 -1.645,0.575 -3.309,1.446 -4.496,2.793 -0.82,0.926 -1.555,2.059 -1.766,3.325 -0.168,1.003 -0.027,1.933 0.473,2.812 0.519,0.914 1.324,1.43 2.293,1.719 l 2.883,0.859 c -0.426,-0.34 -0.774,-0.812 -1.02,-1.422 -0.547,-1.359 -0.551,-2.808 -0.211,-4.226 0.367,-1.539 1.117,-2.891 2.133,-4.067 1.176,-1.359 2.695,-2.09 4.445,-2.207 0.039,-0.004 0.075,-0.004 0.114,-0.008 z m -14.153,16.207 c -1.777,1.063 -3.453,2.313 -4.941,3.79 -1.301,1.289 -2.465,2.742 -3.356,4.371 -0.695,1.269 -1.207,2.683 -1.25,4.16 -0.031,1.156 0.102,2.562 0.848,3.484 0.641,0.789 1.402,1.438 2.32,1.848 0.844,0.379 1.731,0.625 2.649,0.672 0.68,0.035 1.371,0.074 2.051,0.078 1.613,-0.047 3.23,-0.36 4.808,-0.852 -1.226,0.27 -2.488,0.391 -3.683,0.235 -1.711,-0.223 -3.36,-0.946 -4.106,-2.676 -0.734,-1.707 -0.254,-3.653 0.449,-5.274 0.871,-2 2.11,-3.808 3.516,-5.433 1.539,-1.77 3.281,-3.317 5.187,-4.637 1.832,-1.266 5.629,-2.586 7.836,-2.777 -4,-0.199 -9.578,1.379 -12.328,3.011 z"
         style="fill:#131510;fill-opacity:1;fill-rule:evenodd;stroke:none"
         id="path873" /><path
         d="m 158.7289,206.145 c 0.609,1.753 0.906,3.656 1.035,5.507 v 0.024 l 0.078,2.379 v 0.019 c 0,1.617 -0.211,3.258 -0.504,4.844 -0.348,1.859 -0.801,3.695 -1.336,5.5 -0.566,1.906 -1.258,3.766 -2.074,5.566 -0.766,1.704 -1.641,3.36 -2.66,4.911 -0.895,1.367 -1.95,2.636 -3.2,3.667 -1.101,0.911 -2.367,1.571 -3.785,1.704 l -0.32,0.031 -0.281,-0.172 c -1.75,-1.078 -2.203,-3.387 -2.285,-5.344 -0.125,-2.914 0.355,-6.031 0.957,-8.867 0.828,-3.902 1.972,-7.762 3.25,-11.527 1.496,-4.407 3.179,-8.739 5.007,-13.004 1.926,-4.496 4.024,-8.914 6.282,-13.238 2.179,-4.172 4.527,-8.258 7.086,-12.192 2.254,-3.473 4.722,-6.828 7.464,-9.894 2.153,-2.403 4.657,-4.758 7.438,-6.336 l 0.062,-0.035 0.071,-0.028 c 1.031,-0.394 2.125,-0.566 3.219,-0.406 0.988,0.148 1.918,0.492 2.757,1.055 0.774,0.519 1.453,1.168 1.993,1.949 0.472,0.687 0.859,1.449 1.058,2.273 l 0.192,0.797 -0.7,0.383 c -3.347,1.828 -6.355,4.328 -9.043,7.082 -3.105,3.191 -5.957,6.641 -8.582,10.273 -2.715,3.766 -5.218,7.696 -7.488,11.77 -0.461,0.828 -0.914,1.656 -1.363,2.492 h 0.152 c 0.52,0 1.207,-0.195 1.703,-0.348 l 1.051,-0.324 0.215,1.121 c 0.051,0.27 0.121,0.535 0.199,0.797 0.145,0.488 0.184,1 0.152,1.508 -0.035,0.602 -0.218,1.18 -0.488,1.711 -0.328,0.645 -0.828,1.164 -1.394,1.578 l -0.047,0.035 -0.047,0.028 c -0.817,0.464 -1.754,0.546 -2.66,0.433 -0.672,-0.086 -1.352,-0.148 -2.032,-0.199 -0.386,0.82 -0.765,1.644 -1.132,2.477 z m -2.75,7.343 c -0.254,0.723 -0.504,1.442 -0.758,2.164 -0.68,1.946 -1.356,3.891 -2.024,5.84 -0.636,1.863 -1.257,3.735 -1.863,5.61 -0.492,1.515 -0.961,3.043 -1.394,4.578 0.148,-0.215 0.293,-0.434 0.433,-0.653 1.051,-1.644 1.953,-3.39 2.723,-5.195 0.789,-1.852 1.453,-3.758 1.969,-5.711 0.437,-1.652 0.793,-3.387 0.902,-5.078 0.019,-0.516 0.023,-1.035 0.012,-1.555 z"
         style="fill:#131510;fill-opacity:1;fill-rule:evenodd;stroke:none"
         id="path875" /><path
         d="m 158.8379,214.074 c 0,1.352 -0.16,2.903 -0.484,4.645 -0.325,1.746 -0.762,3.543 -1.313,5.39 -0.547,1.848 -1.223,3.661 -2.019,5.43 -0.797,1.77 -1.657,3.359 -2.582,4.766 -0.922,1.406 -1.918,2.55 -2.993,3.433 -1.07,0.887 -2.156,1.383 -3.254,1.485 -1.097,-0.676 -1.695,-2.172 -1.796,-4.489 -0.098,-2.32 0.214,-5.183 0.937,-8.593 0.723,-3.411 1.793,-7.211 3.215,-11.407 1.422,-4.191 3.082,-8.5 4.976,-12.925 1.895,-4.426 3.977,-8.813 6.247,-13.161 2.273,-4.351 4.617,-8.386 7.035,-12.109 2.418,-3.723 4.875,-6.977 7.371,-9.766 2.492,-2.785 4.887,-4.828 7.183,-6.128 0.946,-0.368 1.856,-0.485 2.731,-0.352 0.871,0.129 1.656,0.43 2.355,0.898 0.7,0.469 1.274,1.028 1.723,1.68 0.449,0.649 0.746,1.289 0.898,1.914 -3.144,1.715 -6.238,4.137 -9.281,7.262 -3.043,3.125 -5.933,6.59 -8.679,10.391 -2.743,3.8 -5.262,7.757 -7.555,11.871 -0.758,1.355 -1.477,2.691 -2.16,4.003 0.793,0.043 1.398,0.063 1.816,0.063 0.477,0 1.137,-0.129 1.984,-0.391 0.051,0.262 0.125,0.559 0.223,0.899 0.102,0.34 0.137,0.715 0.113,1.133 -0.023,0.418 -0.148,0.843 -0.375,1.289 -0.222,0.441 -0.586,0.843 -1.082,1.211 -0.55,0.312 -1.234,0.414 -2.058,0.312 -0.664,-0.086 -1.582,-0.168 -2.754,-0.254 -0.57,1.196 -1.109,2.371 -1.617,3.531 0.597,1.563 0.972,3.438 1.121,5.625 z m -1.871,1.012 c 0.082,-2.059 -0.102,-5.918 -0.524,-5.777 -0.121,0.039 -3.695,10.379 -4.191,11.832 -0.648,1.902 -1.269,3.777 -1.867,5.625 -0.602,1.847 -1.113,3.539 -1.535,5.078 -0.426,1.535 -0.711,2.695 -0.86,3.476 1.098,-0.836 2.168,-2.07 3.215,-3.711 1.047,-1.64 1.985,-3.425 2.809,-5.351 0.82,-1.926 1.496,-3.879 2.019,-5.86 0.524,-1.976 0.836,-3.75 0.934,-5.312 z"
         style="fill:#f8b479;fill-opacity:1;fill-rule:evenodd;stroke:none"
         id="path877" /><path
         d="m 146.2599,237.328 0.433,-2.281 c 0.231,-1.195 0.563,-2.41 0.887,-3.586 0.477,-1.723 1.004,-3.438 1.555,-5.137 0.609,-1.886 1.234,-3.769 1.875,-5.644 0.668,-1.957 1.348,-3.907 2.031,-5.86 0.481,-1.371 0.961,-2.746 1.453,-4.113 0.164,-0.461 0.332,-0.922 0.504,-1.383 0.215,-0.562 0.387,-1.113 1.051,-1.332 0.164,-0.051 0.336,-0.074 0.508,-0.062 0.105,0.008 0.203,0.023 0.297,0.05 -0.125,-0.464 -0.27,-0.921 -0.438,-1.363 l -0.211,-0.551 0.238,-0.535 c 0.649,-1.476 1.325,-2.941 2.032,-4.39 1.226,0.078 2.476,0.164 3.699,0.32 0.379,0.047 0.848,0.055 1.207,-0.125 0.234,-0.18 0.473,-0.41 0.609,-0.676 0.114,-0.222 0.207,-0.476 0.223,-0.73 0.004,-0.094 0.008,-0.188 0,-0.282 -0.336,0.063 -0.676,0.102 -1.004,0.102 -0.73,0 -1.473,-0.039 -2.199,-0.078 l -1.762,-0.098 c 1.012,-2.012 2.07,-3.996 3.164,-5.957 2.317,-4.156 4.871,-8.168 7.645,-12.008 2.687,-3.73 5.617,-7.269 8.804,-10.543 2.567,-2.632 5.411,-5.035 8.543,-6.902 -0.093,-0.172 -0.199,-0.332 -0.304,-0.488 -0.371,-0.535 -0.836,-0.973 -1.367,-1.328 -0.555,-0.375 -1.172,-0.594 -1.829,-0.692 -0.679,-0.101 -1.359,0.012 -2,0.246 -2.519,1.45 -4.812,3.633 -6.761,5.813 -2.664,2.973 -5.059,6.23 -7.242,9.597 -2.516,3.872 -4.825,7.887 -6.969,11.993 -2.227,4.269 -4.301,8.629 -6.203,13.066 -1.801,4.207 -3.461,8.481 -4.934,12.824 -1.246,3.672 -2.367,7.438 -3.176,11.243 -0.554,2.617 -1.019,5.546 -0.902,8.234 0.027,0.711 0.133,1.859 0.543,2.656 z"
         style="fill:#131510;fill-opacity:1;fill-rule:evenodd;stroke:none"
         id="path879" /><path
         d="m 140.0369,190.66 c -0.422,-0.039 -0.844,-0.074 -1.265,-0.105 -0.184,-0.012 -2.25,-0.039 -2.512,-0.047 l 0.035,-0.961 c 0,-0.891 0.25,-1.817 0.555,-2.641 0.437,-1.203 1.297,-1.996 2.519,-2.218 l 0.059,-0.012 0.055,-0.004 c 0.792,-0.047 1.589,-0.07 2.378,-0.039 0.579,0.023 1.153,0.066 1.727,0.129 1.555,-2.617 3.145,-5.215 4.77,-7.785 1.523,-2.407 3.058,-4.809 4.609,-7.196 1.141,-1.754 2.285,-3.508 3.449,-5.246 0.379,-0.562 0.758,-1.125 1.141,-1.683 0.215,-0.309 0.437,-0.633 0.656,-0.911 0.727,-0.945 1.66,-1.589 2.785,-1.882 1.024,-0.27 2.07,-0.336 3.117,-0.223 1.039,0.113 2.055,0.375 3.028,0.769 0.84,0.34 1.672,0.711 2.48,1.133 l 1.32,0.692 -1.101,1.023 c -1.52,1.414 -2.941,2.949 -4.301,4.527 -1.582,1.844 -3.113,3.735 -4.605,5.665 -1.621,2.093 -3.192,4.234 -4.723,6.406 -1.223,1.738 -2.438,3.484 -3.633,5.242 0.082,0 0.164,0.004 0.242,0.004 0.52,0 1.207,-0.199 1.703,-0.348 l 1.051,-0.324 0.215,1.121 c 0.051,0.27 0.121,0.535 0.199,0.797 0.145,0.488 0.184,0.996 0.153,1.504 -0.035,0.605 -0.215,1.18 -0.489,1.715 -0.324,0.644 -0.824,1.164 -1.394,1.578 l -0.047,0.035 -0.047,0.027 c -0.816,0.461 -1.754,0.547 -2.66,0.43 -0.988,-0.125 -1.996,-0.199 -2.992,-0.266 -1.696,2.661 -3.36,5.348 -4.977,8.063 -1.933,3.242 -3.859,6.5 -5.613,9.855 -1.762,3.375 -3.332,6.825 -4.625,10.422 l -0.52,1.446 -1.093,-1.04 c -0.59,-0.558 -1.114,-1.183 -1.551,-1.878 -0.512,-0.821 -0.742,-1.77 -0.797,-2.739 -0.066,-1.179 0.137,-2.441 0.402,-3.586 0.391,-1.699 1.035,-3.414 1.7,-5.015 1.179,-2.84 2.589,-5.61 4.05,-8.301 1.485,-2.731 3.004,-5.441 4.547,-8.133 z"
         style="fill:#131510;fill-opacity:1;fill-rule:evenodd;stroke:none"
         id="path881" /><path
         d="m 132.3609,219.539 c -0.55,-0.519 -1.011,-1.078 -1.386,-1.68 -0.371,-0.597 -0.586,-1.339 -0.637,-2.226 -0.047,-0.883 0.078,-1.977 0.375,-3.278 0.301,-1.304 0.848,-2.917 1.648,-4.843 0.997,-2.395 2.332,-5.129 4,-8.203 1.672,-3.071 3.457,-6.25 5.352,-9.528 -1.645,-0.168 -3.414,-0.301 -4.414,-0.234 0,-0.625 0.16,-1.383 0.484,-2.266 0.325,-0.886 0.91,-1.406 1.762,-1.562 0.848,-0.055 1.606,-0.067 2.281,-0.039 0.672,0.023 1.434,0.09 2.282,0.195 1.695,-2.867 3.39,-5.637 5.085,-8.32 1.7,-2.684 3.231,-5.078 4.606,-7.188 1.371,-2.109 2.516,-3.851 3.441,-5.23 0.922,-1.383 1.508,-2.227 1.758,-2.539 0.598,-0.782 1.348,-1.289 2.242,-1.524 0.899,-0.234 1.821,-0.301 2.77,-0.195 0.949,0.101 1.871,0.336 2.769,0.703 0.899,0.363 1.696,0.727 2.395,1.094 -1.399,1.301 -2.856,2.836 -4.379,4.605 -1.52,1.774 -3.066,3.672 -4.637,5.703 -1.574,2.032 -3.156,4.18 -4.754,6.446 -1.593,2.265 -3.168,4.543 -4.711,6.836 0.946,0.05 1.657,0.078 2.129,0.078 0.477,0 1.137,-0.133 1.985,-0.391 0.051,0.258 0.125,0.559 0.226,0.899 0.098,0.336 0.137,0.714 0.11,1.132 -0.024,0.414 -0.149,0.844 -0.375,1.289 -0.223,0.442 -0.586,0.844 -1.082,1.207 -0.551,0.313 -1.235,0.418 -2.059,0.313 -0.824,-0.102 -2.031,-0.207 -3.629,-0.313 -1.894,2.969 -3.668,5.836 -5.312,8.594 -4.032,6.762 -7.625,12.942 -10.325,20.465 z"
         style="fill:#f8b479;fill-opacity:1;fill-rule:evenodd;stroke:none"
         id="path883" /><path
         d="m 131.9509,216.867 c 2.598,-6.558 6.004,-12.465 9.614,-18.519 1.734,-2.907 3.515,-5.782 5.336,-8.629 l 0.421,-0.66 0.758,0.05 c 1.231,0.079 2.481,0.164 3.707,0.317 0.379,0.051 0.848,0.054 1.207,-0.121 0.235,-0.18 0.473,-0.41 0.61,-0.676 0.113,-0.223 0.207,-0.481 0.222,-0.731 0.008,-0.093 0.008,-0.187 0.004,-0.281 -0.34,0.063 -0.679,0.102 -1.008,0.102 -0.73,0 -1.468,-0.039 -2.199,-0.078 l -2.387,-0.133 1.375,-2.035 c 1.555,-2.305 3.133,-4.59 4.731,-6.86 1.551,-2.199 3.144,-4.367 4.789,-6.492 1.516,-1.961 3.07,-3.883 4.684,-5.758 0.964,-1.125 1.964,-2.226 3.007,-3.281 -0.175,-0.074 -0.347,-0.148 -0.523,-0.219 -0.781,-0.316 -1.594,-0.523 -2.426,-0.617 -0.781,-0.082 -1.551,-0.035 -2.312,0.164 -0.633,0.164 -1.125,0.516 -1.536,1.047 l -0.015,0.02 c -0.199,0.25 -0.387,0.531 -0.57,0.796 -0.379,0.547 -0.75,1.098 -1.122,1.649 -1.156,1.73 -2.296,3.476 -3.429,5.219 -1.547,2.379 -3.074,4.773 -4.594,7.171 -1.727,2.735 -3.414,5.5 -5.066,8.286 l -0.442,0.746 -0.836,-0.102 c -0.718,-0.09 -1.449,-0.16 -2.176,-0.187 -0.687,-0.028 -1.378,-0.008 -2.066,0.031 -0.371,0.086 -0.551,0.305 -0.691,0.687 -0.047,0.122 -0.094,0.254 -0.137,0.391 1.004,0.043 2.035,0.152 2.961,0.246 l 2.082,0.211 -1.082,1.871 c -1.817,3.141 -3.598,6.305 -5.332,9.496 -1.422,2.617 -2.793,5.309 -3.942,8.071 -0.609,1.468 -1.214,3.058 -1.57,4.617 -0.207,0.898 -0.394,1.949 -0.34,2.879 0.024,0.445 0.102,0.906 0.293,1.312 z"
         style="fill:#131510;fill-opacity:1;fill-rule:evenodd;stroke:none"
         id="path885" /><path
         d="m 116.5609,221.609 c -1.68,-1.382 -2.254,-3.535 -2.332,-5.687 -0.102,-2.805 0.488,-5.77 1.242,-8.449 1.015,-3.625 2.449,-7.172 4.031,-10.567 1.883,-4.047 4.066,-7.949 6.422,-11.715 0.598,-0.949 1.367,-1.753 2.375,-2.214 0.891,-0.411 1.848,-0.598 2.82,-0.582 0.93,0.015 1.848,0.144 2.742,0.394 0.829,0.231 1.641,0.508 2.434,0.848 l 1.227,0.531 -0.825,1.086 c -2.648,3.504 -5.175,7.129 -7.468,10.898 -1.879,3.082 -3.696,6.231 -5.344,9.457 -1.207,2.368 -2.324,4.825 -3.313,7.297 -0.562,1.406 -1.086,2.836 -1.527,4.285 -0.367,1.207 -0.707,2.485 -0.867,3.739 l -0.238,1.816 z"
         style="fill:#131510;fill-opacity:1;fill-rule:evenodd;stroke:none"
         id="path887" /><path
         d="m 168.2249,221.609 c -1.68,-1.382 -2.254,-3.535 -2.332,-5.687 -0.102,-2.805 0.488,-5.77 1.238,-8.449 1.02,-3.625 2.453,-7.172 4.031,-10.567 1.887,-4.047 4.071,-7.949 6.426,-11.715 0.594,-0.949 1.363,-1.753 2.375,-2.214 0.891,-0.411 1.848,-0.598 2.82,-0.582 0.926,0.015 1.844,0.144 2.742,0.394 0.825,0.231 1.641,0.508 2.43,0.848 l 1.227,0.531 -0.821,1.086 c -2.648,3.504 -5.175,7.129 -7.472,10.898 -1.879,3.082 -3.696,6.231 -5.34,9.457 -1.207,2.368 -2.328,4.825 -3.316,7.297 -0.559,1.406 -1.082,2.836 -1.528,4.285 -0.367,1.207 -0.703,2.485 -0.867,3.739 l -0.234,1.816 z"
         style="fill:#131510;fill-opacity:1;fill-rule:evenodd;stroke:none"
         id="path889" /><path
         d="m 117.1819,220.789 c -1.219,-1.004 -1.871,-2.641 -1.949,-4.906 -0.082,-2.262 0.316,-4.969 1.199,-8.117 0.883,-3.145 2.207,-6.614 3.969,-10.403 1.765,-3.785 3.886,-7.652 6.363,-11.597 0.539,-0.875 1.187,-1.489 1.937,-1.832 0.75,-0.344 1.551,-0.508 2.403,-0.493 0.851,0.012 1.687,0.133 2.5,0.36 0.816,0.226 1.586,0.492 2.308,0.804 -2.887,3.821 -5.398,7.481 -7.531,10.985 -2.133,3.5 -3.926,6.68 -5.379,9.527 -2.09,4.098 -5.234,11.168 -5.82,15.672 z"
         style="fill:#f8b479;fill-opacity:1;fill-rule:evenodd;stroke:none"
         id="path891" /><path
         d="m 168.8459,220.789 c -1.219,-1.004 -1.871,-2.641 -1.953,-4.906 -0.082,-2.262 0.32,-4.969 1.203,-8.117 0.883,-3.145 2.207,-6.614 3.969,-10.403 1.765,-3.785 3.882,-7.652 6.363,-11.597 0.539,-0.875 1.183,-1.489 1.937,-1.832 0.75,-0.344 1.551,-0.508 2.403,-0.493 0.851,0.012 1.683,0.133 2.5,0.36 0.816,0.226 1.586,0.492 2.304,0.804 -2.886,3.821 -5.394,7.481 -7.527,10.985 -2.133,3.5 -3.93,6.68 -5.383,9.527 -2.09,4.098 -5.23,11.168 -5.816,15.672 z"
         style="fill:#f8b479;fill-opacity:1;fill-rule:evenodd;stroke:none"
         id="path893" /><path
         d="m 116.6579,217.004 c 0.504,-1.742 1.149,-3.473 1.77,-5.027 1.015,-2.547 2.168,-5.071 3.41,-7.504 1.672,-3.285 3.52,-6.485 5.43,-9.621 2.007,-3.297 4.191,-6.485 6.472,-9.582 -0.156,-0.047 -0.312,-0.094 -0.472,-0.137 -0.715,-0.199 -1.446,-0.301 -2.184,-0.317 -0.641,-0.007 -1.266,0.11 -1.855,0.379 -0.578,0.266 -1.02,0.778 -1.36,1.325 -2.304,3.679 -4.437,7.492 -6.281,11.449 -1.523,3.269 -2.91,6.691 -3.891,10.183 -0.675,2.418 -1.238,5.149 -1.148,7.68 0.016,0.383 0.047,0.777 0.109,1.172 z"
         style="fill:#131510;fill-opacity:1;fill-rule:evenodd;stroke:none"
         id="path895" /><path
         d="m 168.3219,217.004 c 0.5,-1.742 1.149,-3.473 1.77,-5.027 1.016,-2.547 2.164,-5.071 3.406,-7.504 1.676,-3.285 3.52,-6.485 5.434,-9.621 2.008,-3.297 4.187,-6.485 6.472,-9.582 -0.156,-0.047 -0.316,-0.094 -0.472,-0.137 -0.715,-0.199 -1.446,-0.301 -2.184,-0.317 -0.644,-0.007 -1.265,0.11 -1.855,0.379 -0.582,0.266 -1.02,0.778 -1.36,1.325 -2.304,3.679 -4.441,7.492 -6.281,11.449 -1.523,3.269 -2.91,6.691 -3.891,10.183 -0.679,2.418 -1.242,5.149 -1.148,7.68 0.012,0.383 0.047,0.777 0.109,1.172 z"
         style="fill:#131510;fill-opacity:1;fill-rule:evenodd;stroke:none"
         id="path897" /><path
         d="m 145.8459,172.211 c -1.098,0.719 -2.149,1.512 -3.145,2.375 -0.937,0.816 -1.847,1.668 -2.711,2.566 -0.715,0.746 -1.41,1.532 -2.039,2.36 -0.426,0.566 -0.859,1.144 -1.25,1.738 -0.359,0.602 -1.031,0.707 -1.644,0.492 -0.391,-0.137 -0.746,-0.359 -1.071,-0.625 -0.269,-0.222 -0.531,-0.457 -0.781,-0.707 -0.328,-0.324 -0.617,-0.711 -0.652,-1.199 -0.063,-0.945 0.129,-1.949 0.387,-2.852 0.304,-1.062 0.683,-2.101 1.125,-3.113 0.441,-1.016 0.945,-2.004 1.519,-2.945 0.461,-0.758 1.02,-1.571 1.676,-2.156 0.863,-0.778 1.973,-0.981 3.082,-0.872 1.055,0.102 2.086,0.364 3.062,0.793 0.825,0.368 1.653,0.832 2.332,1.45 0.52,0.468 0.977,1.113 0.762,1.871 -0.105,0.359 -0.344,0.64 -0.652,0.824 z"
         style="fill:#131510;fill-opacity:1;fill-rule:evenodd;stroke:none"
         id="path899" /><path
         d="m 197.5059,172.211 c -1.094,0.719 -2.148,1.512 -3.145,2.375 -0.937,0.816 -1.843,1.668 -2.707,2.566 -0.718,0.746 -1.414,1.532 -2.039,2.36 -0.425,0.566 -0.859,1.144 -1.254,1.738 -0.359,0.602 -1.027,0.707 -1.644,0.492 -0.391,-0.137 -0.746,-0.359 -1.066,-0.625 -0.27,-0.222 -0.536,-0.457 -0.786,-0.707 -0.324,-0.324 -0.613,-0.711 -0.648,-1.199 -0.066,-0.945 0.129,-1.949 0.387,-2.852 0.3,-1.062 0.683,-2.101 1.121,-3.113 0.441,-1.016 0.945,-2.004 1.519,-2.945 0.465,-0.758 1.02,-1.571 1.676,-2.156 0.867,-0.778 1.977,-0.981 3.082,-0.872 1.059,0.102 2.086,0.364 3.063,0.793 0.828,0.368 1.652,0.832 2.336,1.45 0.515,0.468 0.976,1.113 0.757,1.871 -0.101,0.359 -0.34,0.64 -0.652,0.824 z"
         style="fill:#131510;fill-opacity:1;fill-rule:evenodd;stroke:none"
         id="path901" /><path
         d="m 133.5529,179.137 c -0.047,-0.676 0.07,-1.504 0.348,-2.477 0.277,-0.976 0.636,-1.972 1.074,-2.98 0.441,-1.008 0.926,-1.95 1.453,-2.817 0.531,-0.867 1.023,-1.508 1.484,-1.925 0.574,-0.512 1.352,-0.719 2.336,-0.622 0.981,0.094 1.903,0.332 2.762,0.715 0.859,0.379 1.551,0.805 2.07,1.278 0.524,0.468 0.606,0.804 0.254,1 -1.168,0.765 -2.258,1.589 -3.273,2.472 -1.02,0.887 -1.946,1.762 -2.778,2.629 -0.836,0.871 -1.543,1.688 -2.117,2.453 -0.578,0.766 -1.015,1.371 -1.308,1.821 -0.075,0.132 -0.235,0.152 -0.485,0.066 -0.25,-0.086 -0.504,-0.238 -0.762,-0.453 -0.261,-0.211 -0.5,-0.43 -0.714,-0.645 -0.219,-0.218 -0.332,-0.39 -0.344,-0.515 z"
         style="fill:#f8b479;fill-opacity:1;fill-rule:evenodd;stroke:none"
         id="path903" /><path
         d="m 185.2169,179.137 c -0.047,-0.676 0.07,-1.504 0.348,-2.477 0.277,-0.976 0.636,-1.972 1.074,-2.98 0.437,-1.008 0.922,-1.95 1.453,-2.817 0.527,-0.867 1.023,-1.508 1.484,-1.925 0.575,-0.512 1.352,-0.719 2.332,-0.622 0.985,0.094 1.907,0.332 2.766,0.715 0.859,0.379 1.551,0.805 2.07,1.278 0.52,0.468 0.606,0.804 0.254,1 -1.168,0.765 -2.262,1.589 -3.277,2.472 -1.016,0.887 -1.942,1.762 -2.778,2.629 -0.832,0.871 -1.539,1.688 -2.117,2.453 -0.578,0.766 -1.011,1.371 -1.308,1.821 -0.071,0.132 -0.231,0.152 -0.481,0.066 -0.25,-0.086 -0.504,-0.238 -0.765,-0.453 -0.258,-0.211 -0.497,-0.43 -0.715,-0.645 -0.219,-0.218 -0.332,-0.39 -0.34,-0.515 z"
         style="fill:#f8b479;fill-opacity:1;fill-rule:evenodd;stroke:none"
         id="path905" /><path
         d="m 134.8649,178.715 c 0.145,0.137 0.293,0.273 0.446,0.402 0.265,-0.375 0.543,-0.742 0.816,-1.105 0.684,-0.907 1.441,-1.762 2.223,-2.574 0.914,-0.954 1.875,-1.852 2.863,-2.715 0.758,-0.657 1.547,-1.278 2.363,-1.856 -0.347,-0.222 -0.722,-0.41 -1.082,-0.566 -0.754,-0.336 -1.551,-0.535 -2.371,-0.613 -0.445,-0.043 -0.992,-0.028 -1.351,0.296 -0.465,0.414 -0.903,1.082 -1.231,1.621 -0.516,0.844 -0.969,1.731 -1.363,2.645 -0.395,0.91 -0.738,1.844 -1.012,2.801 -0.144,0.5 -0.285,1.109 -0.301,1.664 z"
         style="fill:#131510;fill-opacity:1;fill-rule:evenodd;stroke:none"
         id="path907" /><path
         d="m 186.5289,178.715 c 0.141,0.137 0.289,0.273 0.442,0.402 0.269,-0.375 0.547,-0.742 0.82,-1.105 0.684,-0.907 1.442,-1.762 2.223,-2.574 0.91,-0.954 1.871,-1.852 2.863,-2.715 0.758,-0.657 1.547,-1.278 2.359,-1.856 -0.347,-0.222 -0.718,-0.41 -1.078,-0.566 -0.757,-0.336 -1.554,-0.535 -2.371,-0.613 -0.445,-0.043 -0.996,-0.028 -1.351,0.296 -0.469,0.414 -0.903,1.082 -1.231,1.621 -0.515,0.844 -0.969,1.731 -1.363,2.645 -0.395,0.91 -0.742,1.844 -1.012,2.801 -0.144,0.5 -0.285,1.109 -0.301,1.664 z"
         style="fill:#131510;fill-opacity:1;fill-rule:evenodd;stroke:none"
         id="path909" /><path
         d="m 107.6149,184.809 c 1.223,-0.797 2.496,-1.5 3.825,-2.086 l 0.218,-0.098 0.235,0.016 c 1.765,0.117 3.394,0.695 4.847,1.746 1.407,1.015 2.446,2.359 2.934,4.078 l 0.055,0.187 -0.016,0.192 c -0.117,1.601 -0.426,3.203 -0.812,4.754 -0.45,1.789 -1.02,3.539 -1.692,5.25 -0.687,1.754 -1.48,3.464 -2.371,5.117 -3.145,5.812 -9.227,11.785 -15.047,14.574 -2.769,1.324 -5.695,2.07 -8.742,2.125 h -0.074 c -1.578,-0.09 -3.383,-0.422 -4.649,-1.476 -0.406,-0.34 -0.777,-0.715 -1.093,-1.129 -1.11,1.961 -2.192,3.933 -3.239,5.929 -1.133,2.16 -2.246,4.332 -3.312,6.532 -0.778,1.601 -1.547,3.214 -2.266,4.847 -0.226,0.508 -0.449,1.028 -0.637,1.551 -0.07,0.191 -0.191,0.516 -0.214,0.719 l -0.129,1.066 -1.016,-0.164 c -1.769,-0.277 -3.301,-1.191 -3.574,-3.191 -0.231,-1.688 0.207,-3.414 0.847,-4.957 0.637,-1.739 1.458,-3.496 2.235,-5.176 1.234,-2.664 2.504,-5.309 3.789,-7.945 1.531,-3.145 3.098,-6.274 4.684,-9.391 1.617,-3.176 3.277,-6.324 4.992,-9.441 1.5,-2.731 3.043,-5.438 4.66,-8.09 1.133,-1.852 2.375,-3.817 3.758,-5.473 l 0.031,-0.043 0.039,-0.035 c 0.848,-0.832 1.832,-1.481 2.961,-1.805 0.973,-0.285 1.973,-0.41 2.98,-0.351 0.95,0.058 1.879,0.242 2.778,0.562 0.773,0.277 1.543,0.625 2.23,1.086 z m 3.086,4.093 c -0.918,0.43 -1.812,0.957 -2.644,1.493 -1.672,1.082 -3.27,2.289 -4.805,3.562 -1.746,1.449 -3.414,3 -5.016,4.617 -1.582,1.606 -3.101,3.278 -4.527,5.031 -0.883,1.43 -1.754,2.864 -2.613,4.305 -0.817,1.36 -1.625,2.727 -2.422,4.102 0.125,2.176 1.906,3.965 4.047,3.629 6.336,-0.989 13.226,-10.891 15.687,-16.606 1.391,-3.219 2.102,-6.633 2.293,-10.133 z"
         style="fill:#131510;fill-opacity:1;fill-rule:evenodd;stroke:none"
         id="path911" /><path
         d="m 99.3729,217.586 c -2.719,1.305 -5.5,1.98 -8.344,2.031 -1.843,-0.101 -3.203,-0.519 -4.078,-1.25 -0.871,-0.726 -1.433,-1.535 -1.683,-2.422 -1.496,2.606 -2.879,5.117 -4.153,7.539 -1.273,2.422 -2.382,4.61 -3.328,6.563 -0.949,1.953 -1.711,3.578 -2.285,4.883 -0.57,1.3 -0.883,2.16 -0.934,2.578 -1.644,-0.262 -2.554,-1.031 -2.73,-2.305 -0.176,-1.277 0.086,-2.75 0.785,-4.414 0.399,-1.094 1.137,-2.801 2.207,-5.117 1.074,-2.317 2.332,-4.961 3.778,-7.93 1.449,-2.969 3.007,-6.09 4.679,-9.371 1.668,-3.281 3.328,-6.418 4.973,-9.414 1.648,-2.992 3.195,-5.676 4.641,-8.047 1.445,-2.367 2.667,-4.152 3.667,-5.348 0.797,-0.781 1.645,-1.304 2.543,-1.562 0.899,-0.262 1.782,-0.367 2.657,-0.312 0.871,0.05 1.707,0.218 2.504,0.507 0.8,0.285 1.472,0.61 2.023,0.977 -1,0.937 -2.098,2.109 -3.293,3.516 -1.199,1.402 -2.445,3.019 -3.742,4.839 1.797,-1.976 3.777,-3.863 5.949,-5.66 2.168,-1.797 4.375,-3.191 6.621,-4.179 1.598,0.101 3.043,0.624 4.34,1.562 1.297,0.938 2.145,2.109 2.543,3.516 -0.098,1.351 -0.359,2.875 -0.785,4.566 -0.422,1.695 -0.973,3.398 -1.645,5.117 -0.675,1.719 -1.449,3.387 -2.32,5 -3.027,5.602 -8.961,11.442 -14.59,14.137 z m 9.949,-18.121 c 1.575,-3.645 2.383,-7.68 2.434,-12.106 -1.246,0.414 -2.656,1.133 -4.227,2.149 -1.574,1.012 -3.207,2.222 -4.902,3.629 -1.695,1.406 -3.391,2.968 -5.086,4.687 -1.699,1.719 -3.242,3.438 -4.64,5.156 -0.899,1.458 -1.786,2.915 -2.657,4.375 -0.871,1.457 -1.734,2.915 -2.582,4.375 -0.019,3.133 2.539,5.364 5.207,4.946 6.68,-1.043 13.785,-11.016 16.453,-17.211 z"
         style="fill:#f8b479;fill-opacity:1;fill-rule:evenodd;stroke:none"
         id="path913" /><path
         d="m 94.2829,217.82 c 1.551,-0.316 3.059,-0.836 4.516,-1.535 5.367,-2.57 11.07,-8.183 13.969,-13.539 0.843,-1.562 1.593,-3.18 2.246,-4.84 0.629,-1.605 1.168,-3.254 1.586,-4.933 0.332,-1.317 0.601,-2.684 0.722,-4.043 -0.359,-1.055 -1.043,-1.86 -1.933,-2.504 -0.895,-0.641 -1.848,-1.043 -2.238,-1.039 l -0.024,1.988 c -0.047,4.383 -0.824,8.668 -2.551,12.68 -2.683,6.222 -9.425,15.769 -16.293,17.765 z"
         style="fill:#131510;fill-opacity:1;fill-rule:evenodd;stroke:none"
         id="path915" /><path
         d="m 96.5839,196.797 c 0.66,-0.672 1.336,-1.328 2.02,-1.973 l -4.996,3.86 4.55,-6.008 c 1.207,-1.699 2.473,-3.36 3.817,-4.942 0.625,-0.73 1.265,-1.457 1.929,-2.156 -0.027,-0.012 -0.05,-0.019 -0.078,-0.027 -0.691,-0.25 -1.406,-0.391 -2.136,-0.434 -0.75,-0.047 -1.493,0.055 -2.211,0.262 -0.731,0.211 -1.371,0.648 -1.922,1.18 -1.285,1.55 -2.449,3.402 -3.5,5.125 -1.598,2.617 -3.125,5.293 -4.606,7.988 -1.703,3.094 -3.347,6.219 -4.953,9.371 -1.582,3.102 -3.14,6.219 -4.664,9.352 -1.281,2.621 -2.543,5.25 -3.769,7.902 -0.747,1.617 -1.547,3.32 -2.161,5 l -0.011,0.035 -0.012,0.031 c -0.461,1.094 -0.852,2.426 -0.684,3.637 0.047,0.344 0.227,0.574 0.465,0.734 0.199,-0.515 0.422,-1.015 0.594,-1.406 0.734,-1.66 1.516,-3.301 2.305,-4.93 1.078,-2.222 2.203,-4.418 3.351,-6.601 4.477,-8.524 10.024,-19.266 16.672,-26 z"
         style="fill:#131510;fill-opacity:1;fill-rule:evenodd;stroke:none"
         id="path917" /><path
         d="m 201.4469,192.656 c -0.332,-0.015 -0.66,-0.047 -0.98,-0.097 -1.125,1.617 -2.445,3.179 -3.699,4.664 -0.836,0.996 -1.684,1.984 -2.524,2.98 -0.683,0.809 -1.371,1.633 -2.008,2.485 -2.839,3.796 -6.253,7.117 -7.605,11.878 -0.516,1.817 -0.465,3.594 0.258,5.34 l 0.965,2.328 -2.258,-0.941 c -2.024,-0.844 -3.973,-2.223 -4.852,-4.391 -0.551,-1.363 -0.668,-2.922 -0.222,-4.312 0.753,-2.543 2.035,-4.93 3.507,-7.09 1.653,-2.426 3.391,-4.797 5.106,-7.172 1.25,-1.734 2.496,-3.476 3.695,-5.25 0.805,-1.18 1.613,-2.402 2.336,-3.652 -0.891,-0.895 -1.625,-2.301 -1.805,-3.371 l -0.003,-0.028 c -0.161,-1.101 -0.114,-2.23 0.285,-3.277 0.347,-0.91 0.882,-1.703 1.644,-2.289 0.715,-0.551 1.524,-0.887 2.403,-1.016 0.886,-0.125 1.769,-0.004 2.57,0.414 0.949,0.496 1.617,1.305 2.043,2.313 0.348,0.836 0.48,1.711 0.387,2.598 0.378,0.292 0.804,0.503 1.265,0.648 0.696,0.223 1.414,0.406 2.11,0.508 0.683,0.086 1.375,0.117 2.062,0.09 0.824,-0.649 1.746,-1.223 2.731,-1.536 0.867,-0.273 1.769,-0.425 2.679,-0.394 0.856,0.027 1.688,0.207 2.477,0.547 0.722,0.305 1.433,0.644 2.129,1.008 l 1.418,0.742 -1.25,1.019 c -2.641,2.157 -5.344,4.516 -7.575,7.145 -1.515,1.785 -2.718,3.621 -3.711,5.769 -0.953,2.051 -1.679,4.239 -2.441,6.372 l -0.504,1.406 -1.09,-0.977 c -1.398,-1.254 -1.945,-3.023 -1.996,-4.906 -0.066,-2.453 0.18,-4.723 1.121,-6.988 0.375,-0.895 0.832,-1.743 1.328,-2.567 z"
         style="fill:#131510;fill-opacity:1;fill-rule:evenodd;stroke:none"
         id="path919" /><path
         d="m 201.6429,206.32 c -1.047,-0.937 -1.594,-2.316 -1.645,-4.14 -0.133,-4.887 1.11,-7.254 3.352,-10.606 -1.379,0.11 -2.512,0.039 -3.328,-0.176 -2.094,3.18 -6.532,7.911 -8.579,10.645 -3.05,4.086 -6.359,7.238 -7.773,12.223 -0.598,2.109 -0.5,4.129 0.301,6.054 -1.762,-0.734 -3.535,-1.933 -4.305,-3.828 -0.457,-1.125 -0.558,-2.422 -0.187,-3.59 0.648,-2.187 1.773,-4.453 3.367,-6.797 3.535,-5.187 9.246,-12.523 11.633,-16.957 -0.961,-0.488 -1.954,-2.23 -2.129,-3.273 -0.149,-1.043 -0.075,-1.953 0.222,-2.734 0.301,-0.782 0.739,-1.395 1.313,-1.836 0.57,-0.442 1.219,-0.715 1.945,-0.821 0.723,-0.105 1.383,0 1.981,0.313 0.699,0.363 1.222,0.965 1.57,1.797 0.352,0.832 0.426,1.691 0.227,2.578 0.546,0.57 1.234,0.988 2.058,1.25 0.82,0.258 1.582,0.441 2.281,0.547 0.848,0.101 1.696,0.129 2.543,0.078 0.95,-0.781 1.832,-1.305 2.657,-1.563 0.824,-0.261 1.609,-0.379 2.359,-0.351 0.746,0.023 1.457,0.179 2.129,0.469 0.676,0.285 1.359,0.609 2.058,0.976 -10.375,8.473 -11.367,12.238 -14.05,19.742 z"
         style="fill:#f8b479;fill-opacity:1;fill-rule:evenodd;stroke:none"
         id="path921" /><path
         d="m 201.3969,203.062 c 0.468,-1.289 0.964,-2.566 1.535,-3.8 1.09,-2.348 2.41,-4.371 4.066,-6.324 1.852,-2.18 4,-4.18 6.192,-6.04 -0.016,-0.007 -0.036,-0.015 -0.051,-0.023 -0.539,-0.227 -1.098,-0.348 -1.68,-0.367 -0.652,-0.024 -1.305,0.097 -1.93,0.293 -0.793,0.25 -1.574,0.793 -2.222,1.324 l -0.324,0.27 -0.415,0.027 c -0.925,0.055 -1.855,0.027 -2.777,-0.086 l -0.031,-0.004 c -0.836,-0.125 -1.668,-0.336 -2.477,-0.594 -0.988,-0.312 -1.879,-0.832 -2.609,-1.593 l -0.52,-0.543 0.168,-0.747 c 0.133,-0.593 0.086,-1.152 -0.148,-1.71 -0.203,-0.485 -0.492,-0.875 -0.953,-1.118 -0.383,-0.199 -0.789,-0.238 -1.211,-0.179 -0.496,0.07 -0.942,0.254 -1.344,0.562 -0.406,0.317 -0.68,0.75 -0.867,1.242 -0.242,0.625 -0.242,1.336 -0.148,1.996 0.113,0.622 0.859,1.985 1.406,2.262 l 1.261,0.637 -0.687,1.277 c -0.863,1.602 -1.887,3.156 -2.902,4.656 -1.215,1.79 -2.477,3.551 -3.739,5.305 -1.699,2.36 -3.429,4.711 -5.066,7.117 -1.328,1.95 -2.504,4.114 -3.184,6.407 l -0.007,0.027 c -0.274,0.852 -0.18,1.805 0.148,2.621 0.246,0.602 0.633,1.117 1.102,1.559 -0.067,-1.204 0.078,-2.422 0.421,-3.641 1.489,-5.246 4.895,-8.527 8,-12.68 1.434,-1.914 3.082,-3.746 4.621,-5.574 1.336,-1.582 2.766,-3.266 3.911,-5.004 l 0.519,-0.785 0.891,0.23 c 0.879,0.235 2.004,0.211 2.906,0.141 l 2.77,-0.215 -1.59,2.375 c -2.274,3.399 -3.231,5.5 -3.114,9.778 0.008,0.308 0.032,0.617 0.079,0.921 z"
         style="fill:#131510;fill-opacity:1;fill-rule:evenodd;stroke:none"
         id="path923" /></g></g></svg>
